<?xml version="1.0" encoding="UTF-8"?>
<svg version="1.1" viewBox="0 0 1104 880" width="1280" height="1280" xmlns="http://www.w3.org/2000/svg">
<path transform="translate(537,68)" d="m0 0 4 2 9 10 9 9 3 6 14 14v2l4 2 20 20 7 8 5 6 3 5 33 33 7 8 5 6 3 5 25 25v2l4 2v2l4 2 7 8 5 6 3 5 9 9v2l4 2v2l4 2v2l4 2v2l4 2v2l4 2v2h2v2h2l7 8 5 6 3 5 5 5v2l4 2 6 7 6 5 4 4v2h2v2h2l7 8 1 5-7 7-2 6-30 30-6 7h-2l-2 7-22 22-6 7-5 4-3 7-35 35-3 4-2 5-26 26-6 7-5 4-3 7-26 26-6 7-5 4-3 7-31 31-5 6h-2l-2 7-9 9-3 4h-2l-7-8-33-33-3-6-6-6v-2l-3-1-7-8-21-21-3-6-9-9-7-8-22-22-2-5-10-10-5-6-19-19-2-5-10-10-5-6-6-5-7-8-10-10-2-5-10-10-5-6-6-5-7-8-10-10-2-5-7-8-5-5-6-5v-2l-4-2 2-4 11-10 5-6h2l5-10 12-12 7-8 27-27 2-5 11-11 7-8 28-28 2-5 11-11 2-3h2l2-4 33-33 2-5 8-8 7-8 14-14h2l2-4 13-13 2-5 11-11 2-3h2l2-4 8-8h2l2-4 3-1 1-3 5-5zm-95 188-6 3-10 1-10 8-1 60h-2l-3 7-10 10v9l11 12 4 4 1 61 8 8 2 1 11 1 5 3h5l1-1v-19l-15-1-1-62-11-10 2-4 5-5 4-8 1-57 13-1 2-2v-18zm151 0-5 6-2 5-6 7v5l-4 2-7 8-3 6-6 7-2 5-6 7-2 5-6 7-2 5-6 7-2 5-4 5-5 5-3 6-6 8-3 5-5 7-3 5-2 4h-2l-3 7-5 5-2 4h-2l-3 7-6 7-2 5-6 7-2 5-5 5-1 4h21l4-2 5-9 6-8 4-7 4-5 2-5 5-5 3-7 5-5 5-6 4-7 4-5 3-5 5-7 4-7 1-3h2l4-8 5-5 2-6 5-5 5-6 3-5 5-7 3-5 5-7 2-5 5-5 3-6 6-7 1-6 3-1 7-8 1-3zm40 0-1 1v18l1 1 14 1 1 58 11 11v5l-7 6-2 6-2 2-1 58-15 1v19l4-1v-2h18l2-1v-2l4-2 4-5 1-60 6-7 5-4 4-5v-8l-7-8-4-4-4-8-1-57-10-9-9-2-3-2z" fill="#3D2509"/>
<path transform="translate(572,52)" d="m0 0h6l2 1v2l22 1 2 1v2l14 1 4 3 10 2 2 2 10 2 9 5 1 1 9 2 16 8 8 6 13 7 9 6 11 9 9 6 7 6 6 7 6 5 6 7 13 13 3 6 10 12 3 5 7 11 6 9 8 15 7 14 2 9 6 11 3 11 2 6 1 9 2 2 2 18 2 1 1 3 1 32 3 5-1 4-4-2-5-9-11-12-31-31-2-5-7-8-35-35-2-5-7-8-34-34-3-6-7-8-34-34-3-6-7-8-34-34-3-6-16-17-15-15-3-2z" fill="#39C2DA"/>
<path transform="translate(833,356)" d="m0 0h3v11l-2 5-1 1-1 25-3 3-1 18-3 2-1 10-3 2-1 10-3 2-1 9-3 3-2 6-2 3-1 8-3 4-3 6-3 4h-2l-2 7-4 8-6 7-2 5-6 7-3 6-51 51-6 3-10 9-6 3-9 6-32 16-9 4-6 2-14 6-7 2-6 2-10 2-1 1-16 2-4 2-11 1 2-4 8-9h2l2-4 5-5 2-5 5-6 6-5 2-3h2l2-4 6-5 2-3h2l2-4 9-9 2-5 11-11 6-7h2l2-4h2l2-4 13-13 2-5 11-11 6-7h2l2-4 4-4h2l2-4 13-13 2-5 11-11 6-7h2l2-4h2l2-4 13-13 2-5 11-11 6-7 6-5 6-7 9-9 2-5 12-12 1-2h2l2-4 12-12z" fill="#498C2C"/>
<path transform="translate(496,52)" d="m0 0h8l-2 4-24 24-3 7-39 39-3 4-2 5-35 35-7 8-2 5-35 35-7 8-2 5-34 34-7 8-3 6-34 34-2 3h-2l-2 4-3 5-8 10-4 1v-21l3-5 1-20 3-4 1-15 3-5 2-9 8-24 16-32 5-9 5-6 3-6 9-10 3-6 8-9h2l5-10 17-17 6-3 10-10 9-7 21-14 19-10 15-8 17-8 9-3 11-3 2-2 11-1 6-3 17-2z" fill="#EE455F"/>
<path transform="translate(244,360)" d="m0 0 4 1 5 6 5 5 6 7 3 5 13 13v2l4 2v2h2v2h2l7 8 8 8 3 6 6 6v2h2v2h2l7 8 5 4 6 7 13 13 3 6 6 6v2l4 2 6 7 6 5 7 8 5 6 3 5 5 5v2l4 2 6 7 25 25 3 6 6 6v2l4 2 7 8 20 20 3 6 6 6v2l4 2v2h2v2h2l7 8 5 5v2h-13l-7-1-2-2-13-2-3-2-11-3-18-6-10-4-32-16-9-7-5-2-5-4-5-5-6-3-53-53-2-5-9-10-7-14-6-8-10-21-2-3-2-8-6-12-2-9-2-2-1-12-3-4-1-14h-2l-1-2-1-21-3-3z" fill="#FDBC34"/>
<path transform="translate(889,720)" d="m0 0h21l9 5 5 4v2l3 1 2 3h2l7-8 4-3 9-2 3-2h19l10 5 9 8 4 7 2 7 2 4v43l-4 5-5 1h-38l-1-1-1-46-4-4-11-1v37l-4 14-2 1h-41l-1-1-1-41-4-8v-2l-10 1-3 7-1 1-1 37-4 5-2 1h-36l-5-4-1-2v-65l5-5h42l2 7h3l2-4 3-3 10-2z" fill="#40280C"/>
<path transform="translate(350,692)" d="m0 0h60l10 5v2h2l2 5v14l-4 5-4-1-2-1-22-1v11l9 3 21 10 6 7 8 16v4l-3 2-1 9-9 9-16 8-14 2-1 2-10 1h-20l-7-2-1-1-14-2-2-2-9-2-7-6-2-3v-11l3-5 5-5 5 1 1 1 9 2 3 2h14l-1-9-5-5-16-8-10-11-4-8v-15l5-11 5-4z" fill="#40290D"/>
<path transform="translate(93,692)" d="m0 0h98l4 4 1 4v11l-1 1-38 1-2 2-7 1v20h35l1 1v18l-2 1-30 1-3 4-1 33-4 5-5 1h-49l-2-1-4-10v-82l6-12z" fill="#422C10"/>
<path transform="translate(204,724)" d="m0 0h47l4 5 11 23 5 4 4-2 4-9 2-8 5-10 3-3h22l1 1-1 10-10 19-10 21-10 19-7 14-16 16h-7l-3 3-9 1h-21l-5-4-1-2v-12l5-6 17-1 4-3h2l-8-11-9-19-6-10-6-9-7-15z" fill="#3F280C"/>
<path transform="translate(745,720)" d="m0 0h30l3 3 12 1 5 4 7 8 6 11v7l-6 7-12 6-8 1-26 1 1 9 5 5h17l11-4 4-3 6 1 3 4 1 3v11l-12 3-1 1-17 2-3 2-11 1h-15l-3-3-12-1-7-4-5-3v-2l-3-1v-2h-2l-5-7-2-8-2-4v-14l5-10 11-12 6-5 8-4 9-2zm19 19-5 3-3 4v5l2 1h13l1-1v-10l-5-2z" fill="#422B0F"/>
<path transform="translate(642,700)" d="m0 0h16l5 4 1 3v17h23l2 7 2 1-1 4-6 7-3 1h-17l1 27 5 4h18l1-3 4 2 3 6v10l-6 6-6 2-7 2h-36l-2-4h-9l-8-8-6-5v-39h-6l-5-4-1-2v-12l1-2 6-2 8-4 11-11 7-4z" fill="#402A0E"/>
<path transform="translate(537,720)" d="m0 0h34l3 3 10 2 7 7 1 3v8l-3 1h-11l-3-3-11-1 2 8 4 3 9 2 9 5 4 3v2h2l2 4v18l-5 7-8 7-1 1-9 1-1 2-4 1h-35l-2-4h-9l-4-3-7-3-3-3v-9l1-2h10l9 3h15v-10l-9-1-3-2v-2h-9l-7-6v-2h-2l-1-2v-19l2-4h2l2-4 8-7 8-1z" fill="#422B0F"/>
<path transform="translate(449,724)" d="m0 0h42l1 2v9l3 1 1 4v47l-3 2-1 10-1 1h-42l-5-5v-65z" fill="#452E14"/>
<path transform="translate(458,688)" d="m0 0h24l6 5v2h2l2 4v11l-5 5-11 5h-14l-7-4-6-4-1-1v-12l3-5z" fill="#463013"/>
<path transform="translate(664,271)" d="m0 0 3 4v49h-2l-1 2z" fill="#C1C377"/>
<path transform="translate(998,748)" d="m0 0 2 3v43l-3 3z" fill="#FDFCFA"/>
<path transform="translate(397,717)" d="m0 0 12 2v1h-16z" fill="#FDF8EE"/>
</svg>
